<svg width="100" height="100" viewBox="0 0 100 100" fill="none" xmlns="http://www.w3.org/2000/svg">
<g clip-path="url(#clip0_14478_19302)">
<path d="M30.47 87.0312C29.845 86.5625 29.0638 86.0938 28.4388 85.7812C28.595 84.5312 28.4388 83.125 28.1263 81.7188C27.5013 79.375 26.2513 77.1875 24.5325 75.1562C22.97 76.4062 22.1888 78.5938 22.5013 80.9375C21.4075 79.8438 20.3138 78.75 19.3763 77.6562C20.0013 76.5625 20.3138 75.1562 20.3138 73.75C20.47 71.4062 20.0013 69.0625 18.9075 66.7188C16.8763 67.5 15.6263 69.5312 15.3138 71.875C14.5325 70.625 13.9075 69.2187 13.2825 67.9687C14.22 67.0312 15.0013 65.7812 15.47 64.375C16.2513 62.1875 16.4075 59.8438 15.9388 57.3438C13.7513 57.6562 11.8763 59.2188 10.9388 61.5625C10.47 60 10.1575 58.5938 10.0013 57.0312C11.2513 56.4062 12.345 55.3125 13.1263 54.0625C14.3763 52.1875 15.3138 49.8438 15.47 47.3438C13.1263 47.0312 10.7825 48.2812 9.37628 50.4688C9.37628 48.9062 9.53253 47.1875 9.68878 45.625C11.095 45.3125 12.5013 44.5312 13.7513 43.5938C15.47 42.1875 16.8763 40.1563 17.8138 37.8125C15.6263 36.875 12.97 37.5 10.9388 39.375C11.4075 37.8125 11.8763 36.0938 12.5013 34.5313C14.0638 34.6875 15.6263 34.2188 17.0325 33.5938C19.0638 32.6562 20.9388 31.0938 22.5013 28.9062C20.6263 27.3438 17.8138 27.3438 15.3138 28.75C16.2513 27.1875 17.1888 25.7813 18.2825 24.375C19.6888 25 21.4075 25 23.1263 24.6875C25.47 24.2187 27.8138 23.2812 30.0013 21.5625C28.595 19.5312 25.7825 18.75 22.8138 19.5312C25.0013 17.5 27.345 15.625 30.1575 14.0625C30.9388 13.5938 31.2513 12.6562 30.7825 11.875C30.3138 11.0937 29.22 10.7812 28.4388 11.25C25.47 12.9687 22.8138 15 20.47 17.1875C21.72 14.0625 21.8763 11.25 20.47 9.0625C17.6575 10.9375 15.6263 14.0625 15.1575 16.7188C14.6888 18.75 15.0013 20.4688 15.9388 21.875C14.6888 23.4375 13.595 25.1563 12.6575 26.7188C12.97 23.4375 12.1888 20.625 10.3138 19.0625C8.12628 22.0312 7.18878 25.4688 7.50128 28.125C7.65753 30.1562 8.43878 31.7188 9.68878 32.8125C8.90753 34.6875 8.28253 36.4062 7.81378 38.2812C7.18878 35.1562 5.78253 32.6563 3.43878 31.5625C2.18878 35 2.18878 38.4375 3.12628 40.9375C3.90753 42.8125 5.00128 44.0625 6.56378 44.8438C6.25128 46.7188 6.25128 48.5938 6.25128 50.4688C4.84503 47.6562 2.81378 45.7812 0.313782 45.4688C0.00128177 49.0625 0.938782 52.3438 2.50128 54.5313C3.59503 56.0938 5.15753 57.0312 6.72003 57.3438C6.87628 59.2188 7.34503 60.9375 7.65753 62.6562C5.62628 60.4687 3.28253 59.2187 0.782532 59.5312C1.40753 63.125 3.12628 66.0937 5.31378 67.6562C6.72003 68.9062 8.43878 69.375 9.84503 69.2187C10.47 70.7812 11.2513 72.5 12.0325 73.9062C9.37628 72.8125 6.87628 72.1875 4.68878 73.125C6.25128 76.4062 8.75128 78.9062 11.2513 80C12.97 80.7812 14.5325 80.7812 15.9388 80.4688C17.0325 81.875 18.1263 83.125 19.3763 84.375C16.72 83.75 14.3763 83.9062 12.6575 85.3125C15.1575 88.125 18.4388 89.8438 21.2513 90.3125C22.97 90.625 24.5325 90.3125 25.7825 89.6875C26.4075 90.1562 27.1888 90.625 27.8138 91.0938C29.0638 91.875 30.6263 91.4062 31.2513 90.1562C31.8763 89.0625 31.5638 87.6562 30.47 87.0312ZM92.6575 62.6562C93.1263 60.9375 93.4388 59.0625 93.595 57.3438C95.1575 57.0312 96.5638 56.0938 97.8138 54.5313C99.3763 52.3438 100.314 49.0625 100.001 45.4688C97.5013 45.7812 95.47 47.8125 94.0638 50.4688C94.0638 48.5938 93.9075 46.7188 93.7513 44.8438C95.1575 44.2188 96.4075 42.8125 97.1888 40.9375C98.1263 38.4375 98.2825 35 96.8763 31.5625C94.5325 32.6563 93.1263 35.1562 92.5013 38.2812C92.0325 36.4062 91.4075 34.5312 90.6263 32.8125C91.8763 31.7188 92.6575 30.1562 92.8138 28.125C93.1263 25.4688 92.1888 22.0312 90.0013 19.0625C87.97 20.625 87.345 23.5938 87.6575 26.7188C86.4075 25 85.3138 23.4375 84.0638 21.875C85.0013 20.625 85.3138 18.75 84.845 16.7188C84.3763 14.0625 82.345 10.9375 79.22 8.4375C77.8138 10.4688 77.97 13.4375 79.22 16.5625C76.8763 14.375 74.22 12.3438 71.2513 10.625C70.47 10.1563 69.3763 10.4687 68.9075 11.25C68.4388 12.0312 68.7513 12.9688 69.5325 13.4375C72.1888 15 74.6888 16.875 76.8763 18.9062C73.9075 18.125 71.095 18.9062 69.6888 20.9375C71.8763 22.6562 74.22 23.5938 76.5638 24.0625C78.2825 24.375 80.0013 24.375 81.4075 23.75C82.5013 25.1562 83.595 26.7188 84.3763 28.125C81.8763 26.7188 79.0638 26.7188 77.1888 28.2813C78.7513 30.3125 80.6263 32.0313 82.6575 32.9688C84.22 33.75 85.7825 34.0625 87.1888 33.9063C87.8138 35.4688 88.2825 37.0312 88.7513 38.75C86.72 36.875 84.0638 36.25 81.8763 37.1875C82.8138 39.5312 84.22 41.5625 85.9388 42.9688C87.1888 44.0625 88.595 44.6875 90.0013 45C90.1575 46.5625 90.3138 48.2812 90.3138 49.8438C88.9075 47.6562 86.5638 46.4062 84.22 46.7188C84.5325 49.2188 85.3138 51.5625 86.5638 53.4375C87.345 54.6875 88.4388 55.7812 89.6888 56.4062C89.3763 57.9688 89.0638 59.375 88.7513 60.9375C87.8138 58.5937 86.095 56.875 83.7513 56.7188C83.2825 59.2188 83.595 61.7187 84.22 63.75C84.6888 65.1562 85.3138 66.4062 86.4075 67.3437C85.7825 68.75 85.1575 70 84.3763 71.25C84.0638 68.9062 82.8138 66.875 80.7825 66.0937C79.6888 68.4375 79.22 70.7812 79.3763 73.125C79.3763 74.5312 79.6888 75.9375 80.3138 77.0312C79.3763 78.125 78.2825 79.2188 77.1888 80.3125C77.5013 77.9688 76.8763 75.7812 75.1575 74.5312C73.4388 76.5625 72.1888 78.75 71.5638 81.0938C71.2513 82.5 71.095 83.9062 71.2513 85.1562C70.6263 85.625 70.0013 86.0938 69.22 86.4062C68.1263 87.0312 67.8138 88.4375 68.2825 89.5312C68.9075 90.7812 70.47 91.25 71.72 90.4688C72.5013 90 73.1263 89.5312 73.7513 89.0625C75.0013 89.6875 76.5638 90 78.2825 89.6875C81.095 89.2188 84.3763 87.5 86.8763 84.6875C85.1575 83.2812 82.8138 83.125 80.1575 83.75C81.4075 82.5 82.5013 81.25 83.595 79.8437C85.0013 80.1562 86.5638 80 88.2825 79.375C90.7825 78.2812 93.2825 75.9375 94.845 72.5C92.6575 71.5625 90.1575 72.1875 87.8138 73.5937C88.595 72.0312 89.3763 70.4687 90.0013 68.9062C91.5638 68.9062 93.1263 68.4375 94.5325 67.3437C96.5638 65.625 98.4388 62.8125 99.0638 59.2188C97.0325 59.2188 94.6888 60.625 92.6575 62.6562Z" fill="#FB923C"/>
<path d="M69.2188 77.0312L65.9375 58.125L79.6875 44.6875C80.1563 44.2188 80.3125 43.5938 80.1562 43.125C80 42.5 79.5313 42.1875 78.9063 42.0312L59.8438 39.2188L51.4063 22.0313C51.0938 21.5625 50.625 21.0938 50 21.0938C49.375 21.0938 48.9062 21.4063 48.5938 22.0313L40.1563 39.2188L21.0938 42.0312C20.4688 42.1875 20 42.5 19.8437 43.125C19.6875 43.75 19.8438 44.375 20.3125 44.6875L34.0625 58.125L30.7813 77.0312C30.625 77.6562 30.9375 78.2812 31.4063 78.5938C31.875 78.9062 32.5 79.0625 33.125 78.75L50 69.6875L67.0312 78.5938C67.1875 78.75 67.5 78.75 67.8125 78.75C68.125 78.75 68.4375 78.5938 68.75 78.4375C69.0625 78.125 69.375 77.6562 69.2188 77.0312Z" fill="#FB923C"/>
</g>
<defs>
<clipPath id="clip0_14478_19302">
<rect width="100" height="100" fill="white"/>
</clipPath>
</defs>
</svg>
