<svg width="100" height="100" viewBox="0 0 100 100" fill="none" xmlns="http://www.w3.org/2000/svg">
<g clip-path="url(#clip0_14478_20087)">
<path d="M22.918 32.6333V22.9167C22.918 16.025 28.5263 10.4167 35.418 10.4167C42.3096 10.4167 47.918 16.025 47.918 22.9167V31.25C48.3513 31.25 48.7596 31.35 49.1846 31.3917C52.3792 27.9562 54.159 23.4413 54.168 18.75C54.168 13.7772 52.1925 9.00806 48.6762 5.49175C45.1599 1.97544 40.3908 0 35.418 0C30.4452 0 25.676 1.97544 22.1597 5.49175C18.6434 9.00806 16.668 13.7772 16.668 18.75C16.668 24.2833 19.1096 29.2 22.918 32.6333Z" fill="#FB923C"/>
<path d="M79.1667 45.8332C77.5091 45.8332 75.9194 46.4917 74.7473 47.6638C73.5752 48.8359 72.9167 50.4256 72.9167 52.0832V53.1248C72.9167 53.4011 72.8069 53.6661 72.6116 53.8614C72.4162 54.0568 72.1513 54.1665 71.875 54.1665C71.5987 54.1665 71.3338 54.0568 71.1384 53.8614C70.9431 53.6661 70.8333 53.4011 70.8333 53.1248V47.9165C70.8333 46.2589 70.1749 44.6692 69.0028 43.4971C67.8307 42.325 66.2409 41.6665 64.5833 41.6665C62.9257 41.6665 61.336 42.325 60.1639 43.4971C58.9918 44.6692 58.3333 46.2589 58.3333 47.9165V53.1248C58.3333 53.4011 58.2236 53.6661 58.0282 53.8614C57.8329 54.0568 57.5679 54.1665 57.2917 54.1665C57.0154 54.1665 56.7505 54.0568 56.5551 53.8614C56.3598 53.6661 56.25 53.4011 56.25 53.1248V43.7498C56.25 42.0922 55.5915 40.5025 54.4194 39.3304C53.2473 38.1583 51.6576 37.4998 50 37.4998C48.3424 37.4998 46.7527 38.1583 45.5806 39.3304C44.4085 40.5025 43.75 42.0922 43.75 43.7498V53.1248C43.75 53.4011 43.6403 53.6661 43.4449 53.8614C43.2496 54.0568 42.9846 54.1665 42.7083 54.1665C42.4321 54.1665 42.1671 54.0568 41.9718 53.8614C41.7764 53.6661 41.6667 53.4011 41.6667 53.1248V22.9165C41.6667 21.2589 41.0082 19.6692 39.8361 18.4971C38.664 17.325 37.0743 16.6665 35.4167 16.6665C33.7591 16.6665 32.1694 17.325 30.9973 18.4971C29.8251 19.6692 29.1667 21.2589 29.1667 22.9165V60.4165C28.6141 60.4165 28.0842 60.197 27.6935 59.8063C27.3028 59.4156 27.0833 58.8857 27.0833 58.3332V49.9998H25.025C18.1708 49.9998 12.4958 55.5332 12.5 62.3873C12.5208 84.3915 28.5375 99.9998 38.3875 99.9998H64.5833C67.3192 99.9998 70.0283 99.461 72.5559 98.414C75.0835 97.367 77.3802 95.8325 79.3147 93.8979C81.2493 91.9633 82.7839 89.6667 83.8308 87.1391C84.8778 84.6115 85.4167 81.9024 85.4167 79.1665V52.0832C85.4167 50.4256 84.7582 48.8359 83.5861 47.6638C82.414 46.4917 80.8243 45.8332 79.1667 45.8332Z" fill="#FB923C"/>
</g>
<defs>
<clipPath id="clip0_14478_20087">
<rect width="100" height="100" fill="white"/>
</clipPath>
</defs>
</svg>
