<svg width="132" height="132" viewBox="0 0 132 132" fill="none" xmlns="http://www.w3.org/2000/svg">
<path d="M0 8C0 3.58172 3.58172 0 8 0H124C128.418 0 132 3.58172 132 8V124C132 128.418 128.418 132 124 132H8C3.58172 132 0 128.418 0 124V8Z" fill="#FFF5EC"/>
<path d="M66 110.792C58.5487 110.805 51.2742 108.523 45.1667 104.254C44.4865 103.78 44.0225 103.055 43.8768 102.239C43.7311 101.423 43.9155 100.582 44.3896 99.9021C44.8637 99.2219 45.5885 98.7579 46.4047 98.6122C47.2209 98.4665 48.0615 98.6509 48.7417 99.125C53.2714 102.279 58.5786 104.131 64.087 104.481C69.5953 104.831 75.0942 103.665 79.9866 101.11C84.879 98.5545 88.9778 94.7078 91.8379 89.9873C94.6981 85.2667 96.2103 79.8528 96.2103 74.3333C96.2103 68.8139 94.6981 63.4 91.8379 58.6794C88.9778 53.9589 84.879 50.1121 79.9866 47.557C75.0942 45.0018 69.5953 43.8359 64.087 44.1858C58.5786 44.5357 53.2714 46.388 48.7417 49.5417C48.0615 50.0157 47.2209 50.2002 46.4047 50.0545C45.5885 49.9087 44.8637 49.4448 44.3896 48.7646C43.9155 48.0844 43.7311 47.2438 43.8768 46.4276C44.0225 45.6114 44.4865 44.8866 45.1667 44.4125C49.863 41.1428 55.263 39.0245 60.9299 38.229C66.5967 37.4335 72.3713 37.9831 77.7863 39.8333C83.2014 41.6835 88.1049 44.7825 92.1001 48.8793C96.0953 52.9762 99.07 57.956 100.784 63.4158C102.497 68.8757 102.901 74.6622 101.964 80.3073C101.026 85.9524 98.7729 91.2974 95.3862 95.9101C91.9996 100.523 87.5747 104.274 82.4696 106.859C77.3645 109.444 71.7225 110.791 66 110.792Z" fill="#FB923C"/>
<path d="M45.1673 79.5412H28.5007C27.6718 79.5412 26.877 79.212 26.2909 78.6259C25.7049 78.0399 25.3757 77.245 25.3757 76.4162C25.3757 75.5874 25.7049 74.7926 26.2909 74.2065C26.877 73.6205 27.6718 73.2912 28.5007 73.2912H45.1673C45.9961 73.2912 46.791 73.6205 47.377 74.2065C47.9631 74.7926 48.2923 75.5874 48.2923 76.4162C48.2923 77.245 47.9631 78.0399 47.377 78.6259C46.791 79.212 45.9961 79.5412 45.1673 79.5412ZM48.0006 67.0412H24.334C23.5052 67.0412 22.7103 66.712 22.1243 66.1259C21.5382 65.5399 21.209 64.745 21.209 63.9162C21.209 63.0874 21.5382 62.2926 22.1243 61.7065C22.7103 61.1205 23.5052 60.7912 24.334 60.7912H48.0006C48.8295 60.7912 49.6243 61.1205 50.2104 61.7065C50.7964 62.2926 51.1257 63.0874 51.1257 63.9162C51.1257 64.745 50.7964 65.5399 50.2104 66.1259C49.6243 66.712 48.8295 67.0412 48.0006 67.0412ZM49.334 92.0412H24.334C23.5052 92.0412 22.7103 91.712 22.1243 91.1259C21.5382 90.5399 21.209 89.745 21.209 88.9162C21.209 88.0874 21.5382 87.2926 22.1243 86.7065C22.7103 86.1205 23.5052 85.7912 24.334 85.7912H49.334C50.1628 85.7912 50.9576 86.1205 51.5437 86.7065C52.1297 87.2926 52.459 88.0874 52.459 88.9162C52.459 89.745 52.1297 90.5399 51.5437 91.1259C50.9576 91.712 50.1628 92.0412 49.334 92.0412ZM106.08 31.1704L92.0298 22.1996C90.3979 21.1625 88.4215 20.8148 86.5337 21.2327C84.6459 21.6506 83.0008 22.7999 81.959 24.4287L79.7173 27.9412C78.679 29.5716 78.3301 31.5474 78.7473 33.4349C79.1645 35.3223 80.3136 36.967 81.9423 38.0079L96.0006 46.9746C97.6316 48.0082 99.6054 48.3544 101.491 47.9375C103.376 47.5206 105.02 46.3745 106.063 44.7496L108.305 41.2371C109.341 39.606 109.688 37.6309 109.271 35.7442C108.854 33.8574 107.707 32.2128 106.08 31.1704Z" fill="#FB923C"/>
<path d="M86.1638 50.0078C85.6042 50.0067 85.0552 49.8553 84.5741 49.5695C84.093 49.2837 83.6975 48.874 83.4288 48.3831C83.1602 47.8922 83.0283 47.3382 83.0469 46.7789C83.0655 46.2196 83.234 45.6756 83.5347 45.2037L88.0138 38.1787C88.2346 37.8326 88.5214 37.5334 88.8578 37.2981C89.1942 37.0629 89.5737 36.8962 89.9745 36.8076C90.3754 36.719 90.7897 36.7102 91.194 36.7817C91.5982 36.8533 91.9844 37.0037 92.3305 37.2245C92.6766 37.4453 92.9758 37.7321 93.211 38.0685C93.4463 38.4049 93.613 38.7844 93.7016 39.1852C93.7902 39.5861 93.799 40.0004 93.7274 40.4047C93.6559 40.8089 93.5054 41.1951 93.2847 41.5412L88.8013 48.562C88.5197 49.0062 88.13 49.3718 87.6688 49.6247C87.2076 49.8775 86.6898 50.0093 86.1638 50.0078ZM66.0013 50.3745C61.2628 50.3745 56.6307 51.7796 52.6908 54.4122C48.7509 57.0448 45.68 60.7866 43.8667 65.1644C42.0533 69.5422 41.5789 74.3594 42.5033 79.0069C43.4278 83.6543 45.7096 87.9233 49.0602 91.2739C52.4108 94.6246 56.6798 96.9064 61.3273 97.8308C65.9747 98.7552 70.792 98.2808 75.1698 96.4674C79.5476 94.6541 83.2894 91.5833 85.9219 87.6434C88.5545 83.7034 89.9597 79.0713 89.9597 74.3328C89.9807 71.1807 89.3754 68.0558 88.1788 65.1395C86.9822 62.2233 85.2183 59.5738 82.9893 57.3448C80.7604 55.1159 78.1109 53.3519 75.1946 52.1554C72.2783 50.9588 69.1534 50.3535 66.0013 50.3745ZM76.3846 69.4578L72.1305 73.1495C72.2088 73.5391 72.2493 73.9354 72.2513 74.3328C72.2725 75.6848 71.8616 77.0083 71.0784 78.1106C70.2952 79.2128 69.1805 80.0362 67.8968 80.461C66.6131 80.8858 65.2273 80.8896 63.9412 80.4721C62.6551 80.0545 61.5359 79.2373 60.7465 78.1395C59.9571 77.0417 59.5388 75.7205 59.5524 74.3684C59.5661 73.0163 60.0109 71.7038 60.8223 70.6222C61.6337 69.5405 62.7691 68.746 64.0634 68.3545C65.3576 67.9629 66.7431 67.9948 68.018 68.4453L72.2846 64.737C72.9107 64.1933 73.727 63.9206 74.5541 63.9788C75.3813 64.037 76.1514 64.4214 76.6951 65.0474C77.2388 65.6734 77.5115 66.4898 77.4533 67.3169C77.3951 68.144 77.0107 68.9141 76.3846 69.4578Z" fill="#FB923C"/>
</svg>
