<svg width="180" height="180" viewBox="0 0 180 180" fill="none" xmlns="http://www.w3.org/2000/svg">
<path d="M90.0012 170.623C76.5889 170.648 63.4947 166.539 52.5012 158.856C51.2769 158.002 50.4417 156.697 50.1794 155.228C49.9171 153.759 50.2491 152.246 51.1025 151.022C51.9558 149.798 53.2605 148.962 54.7297 148.7C56.1988 148.438 57.7119 148.77 58.9362 149.623C67.0898 155.3 76.6427 158.634 86.5577 159.264C96.4727 159.894 106.371 157.795 115.177 153.196C123.983 148.596 131.361 141.672 136.509 133.175C141.658 124.678 144.38 114.933 144.38 104.998C144.38 95.0631 141.658 85.318 136.509 76.821C131.361 68.324 123.983 61.3999 115.177 56.8006C106.371 52.2013 96.4727 50.1026 86.5577 50.7324C76.6427 51.3622 67.0898 54.6965 58.9362 60.3731C57.7119 61.2264 56.1988 61.5584 54.7297 61.2961C53.2605 61.0338 51.9558 60.1986 51.1025 58.9743C50.2491 57.75 49.9171 56.2369 50.1794 54.7677C50.4417 53.2986 51.2769 51.9939 52.5012 51.1406C60.9546 45.2551 70.6746 41.4422 80.875 40.0103C91.0753 38.5783 101.469 39.5676 111.217 42.898C120.964 46.2284 129.79 51.8065 136.981 59.1809C144.173 66.5552 149.527 75.5189 152.612 85.3466C155.696 95.1743 156.424 105.59 154.736 115.751C153.048 125.912 148.992 135.533 142.896 143.836C136.8 152.139 128.836 158.89 119.646 163.544C110.457 168.197 100.302 170.623 90.0012 170.623Z" fill="#FB923C"/>
<path d="M52.5 114.373H22.5C21.0082 114.373 19.5774 113.78 18.5225 112.725C17.4676 111.671 16.875 110.24 16.875 108.748C16.875 107.256 17.4676 105.825 18.5225 104.771C19.5774 103.716 21.0082 103.123 22.5 103.123H52.5C53.9918 103.123 55.4226 103.716 56.4775 104.771C57.5324 105.825 58.125 107.256 58.125 108.748C58.125 110.24 57.5324 111.671 56.4775 112.725C55.4226 113.78 53.9918 114.373 52.5 114.373ZM57.6 91.873H15C13.5082 91.873 12.0774 91.2804 11.0225 90.2255C9.96763 89.1706 9.375 87.7399 9.375 86.248C9.375 84.7562 9.96763 83.3254 11.0225 82.2706C12.0774 81.2157 13.5082 80.623 15 80.623H57.6C59.0918 80.623 60.5226 81.2157 61.5775 82.2706C62.6324 83.3254 63.225 84.7562 63.225 86.248C63.225 87.7399 62.6324 89.1706 61.5775 90.2255C60.5226 91.2804 59.0918 91.873 57.6 91.873ZM60 136.873H15C13.5082 136.873 12.0774 136.28 11.0225 135.226C9.96763 134.171 9.375 132.74 9.375 131.248C9.375 129.756 9.96763 128.325 11.0225 127.271C12.0774 126.216 13.5082 125.623 15 125.623H60C61.4918 125.623 62.9226 126.216 63.9775 127.271C65.0324 128.325 65.625 129.756 65.625 131.248C65.625 132.74 65.0324 134.171 63.9775 135.226C62.9226 136.28 61.4918 136.873 60 136.873ZM162.142 27.3055L136.852 11.158C133.915 9.29139 130.357 8.66554 126.959 9.41769C123.561 10.1698 120.6 12.2386 118.725 15.1705L114.69 21.493C112.821 24.4278 112.193 27.9842 112.944 31.3816C113.695 34.7789 115.763 37.7394 118.695 39.613L144 55.753C146.936 57.6137 150.489 58.2368 153.882 57.4864C157.276 56.736 160.235 54.673 162.112 51.748L166.147 45.4255C168.012 42.4897 168.638 38.9345 167.887 35.5383C167.137 32.1422 165.071 29.1819 162.142 27.3055Z" fill="#FB923C"/>
<path d="M126.293 61.2129C125.285 61.2109 124.297 60.9384 123.431 60.4239C122.565 59.9095 121.853 59.172 121.37 58.2884C120.886 57.4048 120.649 56.4075 120.682 55.4008C120.716 54.3941 121.019 53.4149 121.56 52.5654L129.623 39.9204C130.02 39.2975 130.536 38.7589 131.142 38.3354C131.747 37.912 132.43 37.6119 133.152 37.4524C133.873 37.293 134.619 37.2772 135.347 37.4059C136.074 37.5347 136.77 37.8055 137.393 38.2029C138.015 38.6003 138.554 39.1166 138.978 39.7221C139.401 40.3277 139.701 41.0107 139.86 41.7322C140.02 42.4537 140.036 43.1996 139.907 43.9272C139.778 44.6548 139.507 45.35 139.11 45.9729L131.04 58.6104C130.533 59.41 129.832 60.0681 129.002 60.5232C128.171 60.9783 127.239 61.2156 126.293 61.2129ZM90 61.8729C81.4707 61.8729 73.1329 64.4022 66.0411 69.1408C58.9492 73.8794 53.4217 80.6146 50.1577 88.4947C46.8937 96.3748 46.0397 105.046 47.7037 113.411C49.3676 121.777 53.4749 129.461 59.506 135.492C65.5372 141.523 73.2213 145.63 81.5868 147.294C89.9522 148.958 98.6232 148.104 106.503 144.84C114.383 141.576 121.119 136.049 125.857 128.957C130.596 121.865 133.125 113.527 133.125 104.998C133.163 99.3241 132.073 93.6993 129.919 88.45C127.766 83.2007 124.591 78.4316 120.578 74.4195C116.566 70.4074 111.797 67.2323 106.548 65.0785C101.299 62.9246 95.6739 61.835 90 61.8729ZM108.69 96.2229L101.033 102.868C101.174 103.569 101.246 104.283 101.25 104.998C101.288 107.432 100.549 109.814 99.1387 111.798C97.7289 113.782 95.7226 115.264 93.4119 116.029C91.1012 116.793 88.6068 116.8 86.2918 116.049C83.9768 115.297 81.9622 113.826 80.5414 111.85C79.1205 109.874 78.3675 107.496 78.392 105.062C78.4165 102.628 79.2174 100.266 80.6778 98.3187C82.1383 96.3717 84.1821 94.9416 86.5118 94.2369C88.8414 93.5321 91.3352 93.5894 93.63 94.4004L101.31 87.7254C102.437 86.7468 103.906 86.2558 105.395 86.3606C106.884 86.4654 108.27 87.1573 109.249 88.2842C110.227 89.411 110.718 90.8805 110.614 92.3693C110.509 93.8581 109.817 95.2443 108.69 96.2229Z" fill="#FB923C"/>
</svg>
