<svg width="100" height="100" viewBox="0 0 100 100" fill="none" xmlns="http://www.w3.org/2000/svg">
<path fill-rule="evenodd" clip-rule="evenodd" d="M86.225 17.3515C89.5789 20.9601 89.372 26.6129 85.7634 29.9666C82.1548 33.3205 76.502 33.1137 73.1483 29.505C69.7944 25.8964 70.0013 20.2437 73.6099 16.8899C77.2185 13.536 82.8713 13.7429 86.225 17.3515ZM51.8764 33.815L54.5871 31.2958L55.293 8.36248C55.3528 6.41954 56.9764 4.89307 58.9193 4.95287L59.0715 4.95738C61.0144 5.01718 62.5411 6.64091 62.4813 8.58385L62.0413 22.8778L78.7156 40.8188L93.0034 41.4248C94.9456 41.5072 96.4532 43.1484 96.3709 45.0905L96.3644 45.2427C96.282 47.1848 94.6407 48.6925 92.6987 48.6101L69.7752 47.6376L60.6815 56.0891L51.8764 66.786V33.815ZM9.00655 37.6676C10.1134 39.7486 11.7989 41.5586 13.8954 42.9411C14.5279 43.3582 15.3799 43.1833 15.7969 42.5509C16.214 41.9186 16.0391 41.0664 15.4067 40.6495C12.3156 38.6109 10.2862 35.4403 10.2862 31.8599C10.2862 26.2966 15.0926 21.7691 21.326 20.8589L21.3532 20.8548C22.1101 20.7461 22.8737 20.6916 23.6383 20.6919C27.3775 20.6919 30.7687 21.9831 33.2107 24.0844C33.4867 24.3217 33.8456 24.4397 34.2085 24.4126C34.5715 24.3854 34.9088 24.2153 35.1464 23.9395C35.3837 23.6635 35.5017 23.3046 35.4745 22.9417C35.4473 22.5787 35.2771 22.2414 35.0013 22.0039C32.1001 19.5072 28.0807 17.9468 23.6383 17.9468C23.3711 17.9468 23.1052 17.9525 22.8413 17.9635C24.2844 13.054 29.5707 9.47993 35.7966 9.47993C43.104 9.47993 49.1313 14.7366 49.1313 20.648V83.8882C49.1313 89.9742 43.1038 95.0488 35.7966 95.0488C28.4811 95.0488 22.4532 90.1156 22.4532 83.8882C22.4532 83.5431 22.4724 83.2033 22.5085 82.867C26.8746 82.5276 30.7915 80.8727 33.7246 78.3803C34.0018 78.1445 34.1741 77.8083 34.2036 77.4455C34.2331 77.0827 34.1174 76.7231 33.8818 76.4456C33.6461 76.1683 33.3098 75.9959 32.9471 75.9665C32.5843 75.937 32.2246 76.0528 31.9471 76.2884C29.1013 78.7066 25.1728 80.1868 20.8354 80.1868C12.2671 80.1868 5.22322 74.387 5.22322 67.0854C5.22322 59.7907 12.2671 53.9915 20.8354 53.9915C21.5928 53.9915 22.2079 53.3764 22.2079 52.6189C22.2079 51.8615 21.5928 51.2464 20.8354 51.2464C15.6205 51.2464 10.9375 53.1193 7.60695 56.1109C5.14871 53.8319 3.62891 50.8009 3.62891 47.4609C3.62891 43.525 5.73734 40.0233 9.00655 37.6676Z" fill="#FB923C"/>
</svg>
