<svg width="132" height="132" viewBox="0 0 132 132" fill="none" xmlns="http://www.w3.org/2000/svg">
<path d="M0 8C0 3.58172 3.58172 0 8 0H124C128.418 0 132 3.58172 132 8V124C132 128.418 128.418 132 124 132H8C3.58172 132 0 128.418 0 124V8Z" fill="#FFF5EC"/>
<path fill-rule="evenodd" clip-rule="evenodd" d="M102.225 33.3515C105.579 36.9601 105.372 42.6129 101.763 45.9666C98.1548 49.3205 92.502 49.1137 89.1483 45.505C85.7944 41.8964 86.0013 36.2437 89.6099 32.8899C93.2185 29.536 98.8713 29.7429 102.225 33.3515ZM67.8764 49.815L70.5871 47.2958L71.293 24.3625C71.3528 22.4195 72.9764 20.8931 74.9193 20.9529L75.0715 20.9574C77.0144 21.0172 78.5411 22.6409 78.4813 24.5839L78.0413 38.8778L94.7156 56.8188L109.003 57.4248C110.946 57.5072 112.453 59.1484 112.371 61.0905L112.364 61.2427C112.282 63.1848 110.641 64.6925 108.699 64.6101L85.7752 63.6376L76.6815 72.0891L67.8764 82.786V49.815ZM25.0066 53.6676C26.1134 55.7486 27.7989 57.5586 29.8954 58.9411C30.5279 59.3582 31.3799 59.1833 31.7969 58.5509C32.214 57.9186 32.0391 57.0664 31.4067 56.6495C28.3156 54.6109 26.2862 51.4403 26.2862 47.8599C26.2862 42.2966 31.0926 37.7691 37.326 36.8589L37.3532 36.8548C38.1101 36.7461 38.8737 36.6916 39.6383 36.6919C43.3775 36.6919 46.7687 37.9831 49.2107 40.0844C49.4867 40.3217 49.8456 40.4397 50.2085 40.4126C50.5715 40.3854 50.9088 40.2153 51.1464 39.9395C51.3837 39.6635 51.5017 39.3046 51.4745 38.9417C51.4473 38.5787 51.2771 38.2414 51.0013 38.0039C48.1001 35.5072 44.0807 33.9468 39.6383 33.9468C39.3711 33.9468 39.1052 33.9525 38.8413 33.9635C40.2844 29.054 45.5707 25.4799 51.7966 25.4799C59.104 25.4799 65.1313 30.7366 65.1313 36.648V99.8882C65.1313 105.974 59.1038 111.049 51.7966 111.049C44.4811 111.049 38.4532 106.116 38.4532 99.8882C38.4532 99.5431 38.4724 99.2033 38.5085 98.867C42.8746 98.5276 46.7915 96.8727 49.7246 94.3803C50.0018 94.1445 50.1741 93.8083 50.2036 93.4455C50.2331 93.0827 50.1174 92.7231 49.8818 92.4456C49.6461 92.1683 49.3098 91.9959 48.9471 91.9665C48.5843 91.937 48.2246 92.0528 47.9471 92.2884C45.1013 94.7066 41.1728 96.1868 36.8354 96.1868C28.2671 96.1868 21.2232 90.387 21.2232 83.0854C21.2232 75.7907 28.2671 69.9915 36.8354 69.9915C37.5928 69.9915 38.2079 69.3764 38.2079 68.6189C38.2079 67.8615 37.5928 67.2464 36.8354 67.2464C31.6205 67.2464 26.9375 69.1193 23.6069 72.1109C21.1487 69.8319 19.6289 66.8009 19.6289 63.4609C19.6289 59.525 21.7373 56.0233 25.0066 53.6676Z" fill="#FB923C"/>
</svg>
