<svg width="132" height="132" viewBox="0 0 132 132" fill="none" xmlns="http://www.w3.org/2000/svg">
<path d="M0 8C0 3.58172 3.58172 0 8 0H124C128.418 0 132 3.58172 132 8V124C132 128.418 128.418 132 124 132H8C3.58172 132 0 128.418 0 124V8Z" fill="#FFF5EC"/>
<g clip-path="url(#clip0_14282_19864)">
<path d="M38.918 48.6333V38.9167C38.918 32.025 44.5263 26.4167 51.418 26.4167C58.3096 26.4167 63.918 32.025 63.918 38.9167V47.25C64.3513 47.25 64.7596 47.35 65.1846 47.3917C68.3792 43.9562 70.159 39.4413 70.168 34.75C70.168 29.7772 68.1925 25.0081 64.6762 21.4917C61.1599 17.9754 56.3908 16 51.418 16C46.4452 16 41.676 17.9754 38.1597 21.4917C34.6434 25.0081 32.668 29.7772 32.668 34.75C32.668 40.2833 35.1096 45.2 38.918 48.6333Z" fill="#FB923C"/>
<path d="M95.1667 61.8332C93.5091 61.8332 91.9194 62.4917 90.7473 63.6638C89.5752 64.8359 88.9167 66.4256 88.9167 68.0832V69.1248C88.9167 69.4011 88.8069 69.6661 88.6116 69.8614C88.4162 70.0568 88.1513 70.1665 87.875 70.1665C87.5987 70.1665 87.3338 70.0568 87.1384 69.8614C86.9431 69.6661 86.8333 69.4011 86.8333 69.1248V63.9165C86.8333 62.2589 86.1749 60.6692 85.0028 59.4971C83.8307 58.325 82.2409 57.6665 80.5833 57.6665C78.9257 57.6665 77.336 58.325 76.1639 59.4971C74.9918 60.6692 74.3333 62.2589 74.3333 63.9165V69.1248C74.3333 69.4011 74.2236 69.6661 74.0282 69.8614C73.8329 70.0568 73.5679 70.1665 73.2917 70.1665C73.0154 70.1665 72.7505 70.0568 72.5551 69.8614C72.3598 69.6661 72.25 69.4011 72.25 69.1248V59.7498C72.25 58.0922 71.5915 56.5025 70.4194 55.3304C69.2473 54.1583 67.6576 53.4998 66 53.4998C64.3424 53.4998 62.7527 54.1583 61.5806 55.3304C60.4085 56.5025 59.75 58.0922 59.75 59.7498V69.1248C59.75 69.4011 59.6403 69.6661 59.4449 69.8614C59.2496 70.0568 58.9846 70.1665 58.7083 70.1665C58.4321 70.1665 58.1671 70.0568 57.9718 69.8614C57.7764 69.6661 57.6667 69.4011 57.6667 69.1248V38.9165C57.6667 37.2589 57.0082 35.6692 55.8361 34.4971C54.664 33.325 53.0743 32.6665 51.4167 32.6665C49.7591 32.6665 48.1694 33.325 46.9973 34.4971C45.8251 35.6692 45.1667 37.2589 45.1667 38.9165V76.4165C44.6141 76.4165 44.0842 76.197 43.6935 75.8063C43.3028 75.4156 43.0833 74.8857 43.0833 74.3332V65.9998H41.025C34.1708 65.9998 28.4958 71.5332 28.5 78.3873C28.5208 100.392 44.5375 116 54.3875 116H80.5833C83.3192 116 86.0283 115.461 88.5559 114.414C91.0835 113.367 93.3802 111.832 95.3147 109.898C97.2493 107.963 98.7839 105.667 99.8308 103.139C100.878 100.611 101.417 97.9024 101.417 95.1665V68.0832C101.417 66.4256 100.758 64.8359 99.5861 63.6638C98.414 62.4917 96.8243 61.8332 95.1667 61.8332Z" fill="#FB923C"/>
</g>
<defs>
<clipPath id="clip0_14282_19864">
<rect width="100" height="100" fill="white" transform="translate(16 16)"/>
</clipPath>
</defs>
</svg>
