<svg width="132" height="132" viewBox="0 0 132 132" fill="none" xmlns="http://www.w3.org/2000/svg">
<path d="M0 8C0 3.58172 3.58172 0 8 0H124C128.418 0 132 3.58172 132 8V124C132 128.418 128.418 132 124 132H8C3.58172 132 0 128.418 0 124V8Z" fill="#FFF5EC"/>
<g clip-path="url(#clip0_14282_19079)">
<path d="M46.47 103.031C45.845 102.562 45.0638 102.094 44.4388 101.781C44.595 100.531 44.4388 99.125 44.1263 97.7188C43.5013 95.375 42.2513 93.1875 40.5325 91.1562C38.97 92.4062 38.1888 94.5938 38.5013 96.9375C37.4075 95.8438 36.3138 94.75 35.3763 93.6562C36.0013 92.5625 36.3138 91.1562 36.3138 89.75C36.47 87.4062 36.0013 85.0625 34.9075 82.7188C32.8763 83.5 31.6263 85.5312 31.3138 87.875C30.5325 86.625 29.9075 85.2187 29.2825 83.9687C30.22 83.0312 31.0013 81.7812 31.47 80.375C32.2513 78.1875 32.4075 75.8438 31.9388 73.3438C29.7513 73.6562 27.8763 75.2188 26.9388 77.5625C26.47 76 26.1575 74.5938 26.0013 73.0312C27.2513 72.4062 28.345 71.3125 29.1263 70.0625C30.3763 68.1875 31.3138 65.8438 31.47 63.3438C29.1263 63.0312 26.7825 64.2812 25.3763 66.4688C25.3763 64.9062 25.5325 63.1875 25.6888 61.625C27.095 61.3125 28.5013 60.5312 29.7513 59.5938C31.47 58.1875 32.8763 56.1563 33.8138 53.8125C31.6263 52.875 28.97 53.5 26.9388 55.375C27.4075 53.8125 27.8763 52.0938 28.5013 50.5313C30.0638 50.6875 31.6263 50.2188 33.0325 49.5938C35.0638 48.6562 36.9388 47.0938 38.5013 44.9062C36.6263 43.3438 33.8138 43.3438 31.3138 44.75C32.2513 43.1875 33.1888 41.7813 34.2825 40.375C35.6888 41 37.4075 41 39.1263 40.6875C41.47 40.2187 43.8138 39.2812 46.0013 37.5625C44.595 35.5312 41.7825 34.75 38.8138 35.5312C41.0013 33.5 43.345 31.625 46.1575 30.0625C46.9388 29.5938 47.2513 28.6562 46.7825 27.875C46.3138 27.0937 45.22 26.7812 44.4388 27.25C41.47 28.9687 38.8138 31 36.47 33.1875C37.72 30.0625 37.8763 27.25 36.47 25.0625C33.6575 26.9375 31.6263 30.0625 31.1575 32.7188C30.6888 34.75 31.0013 36.4688 31.9388 37.875C30.6888 39.4375 29.595 41.1563 28.6575 42.7188C28.97 39.4375 28.1888 36.625 26.3138 35.0625C24.1263 38.0312 23.1888 41.4688 23.5013 44.125C23.6575 46.1562 24.4388 47.7188 25.6888 48.8125C24.9075 50.6875 24.2825 52.4062 23.8138 54.2812C23.1888 51.1562 21.7825 48.6563 19.4388 47.5625C18.1888 51 18.1888 54.4375 19.1263 56.9375C19.9075 58.8125 21.0013 60.0625 22.5638 60.8438C22.2513 62.7188 22.2513 64.5938 22.2513 66.4688C20.845 63.6562 18.8138 61.7812 16.3138 61.4688C16.0013 65.0625 16.9388 68.3438 18.5013 70.5313C19.595 72.0938 21.1575 73.0312 22.72 73.3438C22.8763 75.2188 23.345 76.9375 23.6575 78.6562C21.6263 76.4687 19.2825 75.2187 16.7825 75.5312C17.4075 79.125 19.1263 82.0937 21.3138 83.6562C22.72 84.9062 24.4388 85.375 25.845 85.2187C26.47 86.7812 27.2513 88.5 28.0325 89.9062C25.3763 88.8125 22.8763 88.1875 20.6888 89.125C22.2513 92.4062 24.7513 94.9062 27.2513 96C28.97 96.7812 30.5325 96.7812 31.9388 96.4688C33.0325 97.875 34.1263 99.125 35.3763 100.375C32.72 99.75 30.3763 99.9062 28.6575 101.312C31.1575 104.125 34.4388 105.844 37.2513 106.312C38.97 106.625 40.5325 106.312 41.7825 105.688C42.4075 106.156 43.1888 106.625 43.8138 107.094C45.0638 107.875 46.6263 107.406 47.2513 106.156C47.8763 105.062 47.5638 103.656 46.47 103.031ZM108.658 78.6562C109.126 76.9375 109.439 75.0625 109.595 73.3438C111.158 73.0312 112.564 72.0938 113.814 70.5313C115.376 68.3438 116.314 65.0625 116.001 61.4688C113.501 61.7812 111.47 63.8125 110.064 66.4688C110.064 64.5938 109.908 62.7188 109.751 60.8438C111.158 60.2188 112.408 58.8125 113.189 56.9375C114.126 54.4375 114.283 51 112.876 47.5625C110.533 48.6563 109.126 51.1562 108.501 54.2812C108.033 52.4062 107.408 50.5312 106.626 48.8125C107.876 47.7188 108.658 46.1562 108.814 44.125C109.126 41.4688 108.189 38.0312 106.001 35.0625C103.97 36.625 103.345 39.5938 103.658 42.7188C102.408 41 101.314 39.4375 100.064 37.875C101.001 36.625 101.314 34.75 100.845 32.7188C100.376 30.0625 98.345 26.9375 95.22 24.4375C93.8138 26.4688 93.97 29.4375 95.22 32.5625C92.8763 30.375 90.22 28.3438 87.2513 26.625C86.47 26.1563 85.3763 26.4687 84.9075 27.25C84.4388 28.0312 84.7513 28.9688 85.5325 29.4375C88.1888 31 90.6888 32.875 92.8763 34.9062C89.9075 34.125 87.095 34.9062 85.6888 36.9375C87.8763 38.6562 90.22 39.5938 92.5638 40.0625C94.2825 40.375 96.0013 40.375 97.4075 39.75C98.5013 41.1562 99.595 42.7188 100.376 44.125C97.8763 42.7188 95.0638 42.7188 93.1888 44.2813C94.7513 46.3125 96.6263 48.0313 98.6575 48.9688C100.22 49.75 101.783 50.0625 103.189 49.9063C103.814 51.4688 104.283 53.0312 104.751 54.75C102.72 52.875 100.064 52.25 97.8763 53.1875C98.8138 55.5312 100.22 57.5625 101.939 58.9688C103.189 60.0625 104.595 60.6875 106.001 61C106.158 62.5625 106.314 64.2812 106.314 65.8438C104.908 63.6562 102.564 62.4062 100.22 62.7188C100.533 65.2188 101.314 67.5625 102.564 69.4375C103.345 70.6875 104.439 71.7812 105.689 72.4062C105.376 73.9688 105.064 75.375 104.751 76.9375C103.814 74.5937 102.095 72.875 99.7513 72.7188C99.2825 75.2188 99.595 77.7187 100.22 79.75C100.689 81.1562 101.314 82.4062 102.408 83.3437C101.783 84.75 101.158 86 100.376 87.25C100.064 84.9062 98.8138 82.875 96.7825 82.0937C95.6888 84.4375 95.22 86.7812 95.3763 89.125C95.3763 90.5312 95.6888 91.9375 96.3138 93.0312C95.3763 94.125 94.2825 95.2188 93.1888 96.3125C93.5013 93.9688 92.8763 91.7812 91.1575 90.5312C89.4388 92.5625 88.1888 94.75 87.5638 97.0938C87.2513 98.5 87.095 99.9062 87.2513 101.156C86.6263 101.625 86.0013 102.094 85.22 102.406C84.1263 103.031 83.8138 104.438 84.2825 105.531C84.9075 106.781 86.47 107.25 87.72 106.469C88.5013 106 89.1263 105.531 89.7513 105.062C91.0013 105.688 92.5638 106 94.2825 105.688C97.095 105.219 100.376 103.5 102.876 100.688C101.158 99.2812 98.8138 99.125 96.1575 99.75C97.4075 98.5 98.5013 97.25 99.595 95.8437C101.001 96.1562 102.564 96 104.283 95.375C106.783 94.2812 109.283 91.9375 110.845 88.5C108.658 87.5625 106.158 88.1875 103.814 89.5937C104.595 88.0312 105.376 86.4687 106.001 84.9062C107.564 84.9062 109.126 84.4375 110.533 83.3437C112.564 81.625 114.439 78.8125 115.064 75.2188C113.033 75.2188 110.689 76.625 108.658 78.6562Z" fill="#FB923C"/>
<path d="M85.2188 93.0312L81.9375 74.125L95.6875 60.6875C96.1563 60.2188 96.3125 59.5938 96.1562 59.125C96 58.5 95.5313 58.1875 94.9063 58.0312L75.8438 55.2188L67.4063 38.0313C67.0938 37.5625 66.625 37.0938 66 37.0938C65.375 37.0938 64.9062 37.4063 64.5938 38.0313L56.1563 55.2188L37.0938 58.0312C36.4688 58.1875 36 58.5 35.8437 59.125C35.6875 59.75 35.8438 60.375 36.3125 60.6875L50.0625 74.125L46.7813 93.0312C46.625 93.6562 46.9375 94.2812 47.4063 94.5938C47.875 94.9062 48.5 95.0625 49.125 94.75L66 85.6875L83.0312 94.5938C83.1875 94.75 83.5 94.75 83.8125 94.75C84.125 94.75 84.4375 94.5938 84.75 94.4375C85.0625 94.125 85.375 93.6562 85.2188 93.0312Z" fill="#FB923C"/>
</g>
<defs>
<clipPath id="clip0_14282_19079">
<rect width="100" height="100" fill="white" transform="translate(16 16)"/>
</clipPath>
</defs>
</svg>
